<svg width="14" height="14" viewBox="0 0 14 14" fill="none" xmlns="http://www.w3.org/2000/svg">
<path fill-rule="evenodd" clip-rule="evenodd" d="M6.99992 0.333336C5.15825 0.333336 3.66659 1.825 3.66659 3.66667C3.66659 5.50834 5.15825 7 6.99992 7C8.84159 7 10.3333 5.50834 10.3333 3.66667C10.3333 1.825 8.84159 0.333336 6.99992 0.333336ZM8.66658 3.66667C8.66658 2.75 7.91658 2 6.99992 2C6.08325 2 5.33325 2.75 5.33325 3.66667C5.33325 4.58334 6.08325 5.33334 6.99992 5.33334C7.91658 5.33334 8.66658 4.58334 8.66658 3.66667ZM11.9999 11.1667C11.8333 10.575 9.24992 9.5 6.99992 9.5C4.74992 9.5 2.16659 10.575 1.99992 11.175V12H11.9999V11.1667ZM0.333252 11.1667C0.333252 8.95 4.77492 7.83334 6.99992 7.83334C9.22492 7.83334 13.6666 8.95 13.6666 11.1667V13.6667H0.333252V11.1667Z" fill="#E3A817"/>
</svg>
