<svg width="14" height="14" viewBox="0 0 14 14" fill="none" xmlns="http://www.w3.org/2000/svg">
<path fill-rule="evenodd" clip-rule="evenodd" d="M6.99998 0.333313C5.15831 0.333313 3.66665 1.82498 3.66665 3.66665C3.66665 5.50831 5.15831 6.99998 6.99998 6.99998C8.84165 6.99998 10.3333 5.50831 10.3333 3.66665C10.3333 1.82498 8.84165 0.333313 6.99998 0.333313ZM8.66665 3.66665C8.66665 2.74998 7.91665 1.99998 6.99998 1.99998C6.08331 1.99998 5.33331 2.74998 5.33331 3.66665C5.33331 4.58331 6.08331 5.33331 6.99998 5.33331C7.91665 5.33331 8.66665 4.58331 8.66665 3.66665ZM12 11.1666C11.8333 10.575 9.24998 9.49998 6.99998 9.49998C4.74998 9.49998 2.16665 10.575 1.99998 11.175V12H12V11.1666ZM0.333313 11.1666C0.333313 8.94998 4.77498 7.83331 6.99998 7.83331C9.22498 7.83331 13.6666 8.94998 13.6666 11.1666V13.6666H0.333313V11.1666Z" fill="white"/>
</svg>
