<svg width="292" height="37" viewBox="0 0 292 37" fill="none" xmlns="http://www.w3.org/2000/svg">
<g clip-path="url(#clip0)">
<path d="M79.2175 19.3832C74.1618 19.3832 71.6476 23.1022 71.6476 28.1221C71.6476 33.3468 74.063 36.9986 79.2175 36.9986C84.3763 36.9986 86.7845 33.3468 86.7845 28.1221C86.7845 23.1022 84.2732 19.3832 79.2175 19.3832ZM79.2175 33.5818C77.8737 33.5818 77.2763 32.3755 77.2763 28.1207C77.2763 24.2354 77.6746 22.7971 79.2175 22.7971C80.7575 22.7971 81.1572 24.2354 81.1572 28.1207C81.1572 32.3798 80.5555 33.5818 79.2175 33.5818ZM90.2801 17.9492V19.8273H88.0682V23.6481H90.2801V36.6347H95.7054V23.6481H98.658V19.8273H95.7054V18.1225C95.7054 17.101 96.2211 16.5423 97.6494 16.5423C97.9503 16.5423 98.3514 16.6082 98.6566 16.6784V12.5267C97.7812 12.4264 96.9761 12.3233 95.9088 12.3233C92.3259 12.3247 90.2801 13.8304 90.2801 17.9492ZM32.4414 24.5492C32.4414 20.833 29.0619 19.4305 25.8084 19.4305C22.7312 19.4305 19.7141 20.7657 19.1138 24.0807L23.8328 25.0535C23.8916 24.0707 24.3085 22.8458 25.6107 22.8458C26.5476 22.8458 27.0147 23.512 27.0147 24.5148V25.9603C23.4303 26.3758 18.4907 27.668 18.3717 32.0432C18.2887 35.1333 20.3502 36.9613 23.0549 36.9613C24.6552 36.9613 26.2568 36.0774 27.1823 35.1018C27.2152 35.3811 27.2511 36.1748 27.3528 36.639H32.9457C32.7408 36.4097 32.44 35.8353 32.44 33.927L32.4414 24.5492ZM27.0161 32.354C26.5548 32.9615 25.8929 33.3984 25.2755 33.3984C24.3027 33.3984 23.701 32.7881 23.701 31.6162C23.701 29.4716 25.1193 28.751 27.0147 28.5691L27.0161 32.354ZM45.746 19.4276C43.6301 19.4276 42.1359 20.4075 41.0184 21.5464H40.9482L40.921 19.8273H35.6118V36.6361H41.037V24.6151C41.5327 23.9804 42.1917 23.5707 42.802 23.5707C43.7089 23.5707 44.0527 24.1022 44.0527 25.0606V36.6332H49.478V23.3386C49.4794 21.0336 48.1213 19.4276 45.746 19.4276ZM67.728 19.8259H62.3328L58.3415 24.9059H58.2756V12.7946H52.8475V36.6347H58.2756V30.6148L59.416 29.3026H59.4819L62.1265 36.6347H67.7538L63.1895 25.0005L67.728 19.8259ZM12.5897 24.2354V24.0492C14.3175 23.3744 16.4807 21.7341 16.4807 18.6182C16.4807 15.326 13.7043 12.7932 9.48098 12.7932H0.0558472V36.6361H9.2403C13.7673 36.6361 17.0466 34.3382 17.0466 30.2581C17.0466 27.2024 15.1727 25.0864 12.5897 24.2354ZM5.91235 17.0137H8.02258C9.39216 17.0137 10.9265 17.3818 10.9265 19.6568C10.9265 21.0665 10.0655 22.2369 7.88649 22.2369H5.91235V17.0137ZM8.12287 32.2179H5.91235V26.2554H8.12287C10.0655 26.2554 11.1629 27.4287 11.1629 29.2037C11.1629 31.6463 9.42654 32.2179 8.12287 32.2179ZM214.037 33.927V24.5492C214.037 20.833 210.661 19.4305 207.409 19.4305C204.329 19.4305 201.312 20.7657 200.71 24.0807L205.433 25.0535C205.489 24.0707 205.903 22.8458 207.21 22.8458C208.141 22.8458 208.615 23.512 208.615 24.5148V25.9603C205.026 26.3758 200.082 27.668 199.966 32.0432C199.883 35.1333 201.943 36.9613 204.652 36.9613C206.253 36.9613 207.85 36.0774 208.783 35.1018C208.811 35.3811 208.848 36.1748 208.947 36.639H214.537C214.341 36.4069 214.037 35.8353 214.037 33.927ZM208.618 32.354C208.149 32.9615 207.49 33.3984 206.874 33.3984C205.9 33.3984 205.299 32.7881 205.299 31.6162C205.299 29.4716 206.717 28.751 208.615 28.5691L208.618 32.354ZM154.889 19.3832C149.898 19.3832 147.417 23.4017 147.417 28.1579C147.417 32.8125 149.762 37 154.952 37C156.416 37.0444 157.856 36.6242 159.066 35.7996C160.276 34.975 161.194 33.7884 161.688 32.4099L158.031 31.069C157.762 32.4228 156.657 33.3769 155.348 33.3769C153.164 33.3769 152.768 30.8928 152.841 29.3957H161.921V28.2568C161.921 23.8716 160.114 19.3832 154.889 19.3832ZM156.896 26.1781H152.842C152.759 24.5965 153.312 22.7985 154.854 22.7985C156.727 22.7985 156.949 24.6208 156.896 26.1781ZM176.552 19.8273H181.974V36.6361H176.552V19.8273ZM176.552 12.7932H181.974V17.6154H176.552V12.7932ZM192.172 22.7985C193.045 22.7985 193.478 23.2684 193.745 23.9346C193.982 24.5721 194.014 25.3758 194.014 26.0477H198.64C198.64 24.373 197.767 19.3861 192.011 19.3861C186.887 19.3861 184.344 23.9747 184.344 28.5605C184.344 32.7108 186.884 37.0014 191.776 37.0014C195.729 37.0014 198.072 34.8597 198.476 30.7739L194.256 30.1693C194.256 31.4429 194.088 33.3783 192.177 33.3783C190.775 33.3783 190.172 32.1449 190.172 28.3571C190.162 25.009 190.366 22.7985 192.172 22.7985ZM108.087 12.7946L102.496 36.6361H107.719L108.759 31.8168H114.285L115.223 36.6361H121.084L115.99 12.7946H108.087ZM109.597 27.5963L111.612 17.8833H111.732L113.447 27.5963H109.597ZM169.549 22.1023H169.459L169.404 19.8259H164.154V36.6347H169.585V25.7497C170.221 24.9919 171.175 24.4489 172.561 24.4489C173.495 24.4489 174.155 24.6752 174.772 24.9131V19.4262C172.679 19.4276 170.655 20.3273 169.549 22.1023ZM141.275 19.4276C139.003 19.4276 137.383 20.6511 136.434 21.6754H136.364C135.851 20.3789 134.751 19.4276 133.102 19.4276C131.081 19.4276 129.38 20.472 128.246 21.5407H128.177L128.148 19.8287H122.853V36.6375H128.177V24.6495C128.634 24.0306 129.449 23.6137 130.018 23.6137C131.025 23.6137 131.291 24.2154 131.291 25.1208V36.6375H136.618V24.6495C136.97 24.1853 137.745 23.6137 138.473 23.6137C139.46 23.6137 139.735 24.2154 139.735 25.1208V36.6375H145.057V23.2369C145.057 20.9161 143.53 19.4276 141.275 19.4276ZM247.39 9.01827C249.542 9.8687 251.669 10.7802 253.769 11.7517C247.097 14.4595 240.642 17.6731 234.459 21.3645C232.373 20.2711 230.256 19.2387 228.11 18.2686C234.279 14.6751 240.726 11.5817 247.39 9.01827ZM239.429 6.20605C232.509 8.39843 225.822 11.2675 219.466 14.7716C221.486 15.5023 223.488 16.2802 225.461 17.1125C231.62 13.4895 238.105 10.4543 244.833 8.04696C243.046 7.39117 241.244 6.77736 239.429 6.20605Z" fill="#C4C4C4"/>
<path d="M261.888 8.74751C256.42 6.10221 250.756 3.88412 244.946 2.1131C242.897 2.70333 240.866 3.34658 238.855 4.04712C244.837 5.81893 250.669 8.06325 256.295 10.7589C258.145 10.0479 260.009 9.37726 261.888 8.74751ZM270.789 6.09432C265.191 3.65404 259.425 1.6174 253.536 0C251.659 0.388442 249.791 0.821211 247.934 1.29794C253.776 3.00533 259.476 5.16409 264.982 7.75471C266.906 7.15931 268.842 6.60572 270.789 6.09432ZM285.079 10.895C271.184 15.581 258.048 22.2717 246.086 30.7553C249.051 32.5787 251.948 34.5111 254.769 36.5487C266.04 27.6054 278.48 20.2439 291.744 14.6685C289.559 13.3462 287.337 12.0878 285.079 10.895ZM275.449 6.31924C261.014 10.1433 247.302 16.3074 234.86 24.5664C237.638 25.9323 240.368 27.394 243.045 28.9487C255.235 20.5049 268.676 14.0293 282.876 9.75893C280.437 8.53462 277.96 7.38749 275.449 6.31924ZM259.338 35.0488C259.338 34.2107 260.043 33.5288 260.91 33.5288C261.776 33.5288 262.481 34.2107 262.481 35.0488C262.481 35.9026 261.776 36.5845 260.91 36.5845C260.043 36.5845 259.338 35.9026 259.338 35.0488ZM259.635 35.0488C259.635 35.7465 260.202 36.2837 260.91 36.2837C261.61 36.2837 262.179 35.7465 262.179 35.0488C262.179 34.374 261.612 33.8311 260.91 33.8311C260.203 33.8311 259.635 34.374 259.635 35.0488Z" fill="#C4C4C4"/>
<path d="M261.692 35.9068H261.398L260.894 35.1204H260.583V35.9068H260.325V34.2006H261.09C261.239 34.1907 261.388 34.2198 261.523 34.2851C261.584 34.3253 261.633 34.3802 261.667 34.4449C261.701 34.5096 261.718 34.5818 261.716 34.6548C261.716 34.9871 261.473 35.1132 261.162 35.1218L261.692 35.9068ZM260.875 34.9112C261.119 34.9112 261.455 34.9527 261.455 34.6476C261.455 34.4255 261.261 34.3955 261.04 34.3955H260.587V34.9083L260.875 34.9112Z" fill="#C4C4C4"/>
</g>
<defs>
<clipPath id="clip0">
<rect width="291.798" height="37" fill="white"/>
</clipPath>
</defs>
</svg>
