<svg width="162" height="35" viewBox="0 0 162 35" fill="none" xmlns="http://www.w3.org/2000/svg">
<g clip-path="url(#clip0)">
<path d="M152.601 28.2941C152.601 25.9362 154.515 24.0232 156.872 24.0232C159.23 24.0232 161.142 25.9362 161.142 28.2941C161.142 30.652 159.23 32.5639 156.872 32.5639C154.515 32.5639 152.601 30.652 152.601 28.2941Z" fill="#C4C4C4"/>
<path d="M16.3918 16.9833C16.3918 14.2781 15.8692 12.2711 14.8237 10.9635C13.7768 9.65742 12.1915 9.0049 10.0595 9.0049H7.79194V25.5475H9.52701C11.8948 25.5475 13.6298 24.8453 14.7348 23.4366C15.8382 22.0305 16.392 19.8788 16.392 16.9833H16.3918ZM24.479 16.7014C24.479 21.6299 23.1543 25.4276 20.5046 28.0932C17.8551 30.76 14.1304 32.0934 9.32909 32.0934H-3.05176e-05V2.56143H9.98051C14.6098 2.56143 18.1838 3.77387 20.7023 6.19729C23.2198 8.62198 24.479 12.1218 24.479 16.7017V16.7014ZM50.3209 32.0932H57.7443V2.43737H50.3209V32.0932ZM68.1731 21.0314C68.1731 22.9222 68.4201 24.3644 68.9135 25.3554C69.4077 26.3479 70.2356 26.8435 71.3997 26.8435C72.5515 26.8435 73.3659 26.3479 73.8405 25.3554C74.315 24.3644 74.5511 22.9222 74.5511 21.0314C74.5511 19.1504 74.3113 17.7317 73.8307 16.7741C73.3486 15.8136 72.5268 15.333 71.3615 15.333C70.222 15.333 69.4077 15.8115 68.9133 16.7629C68.4203 17.7157 68.1729 19.1381 68.1729 21.0314H68.1731ZM82.1068 21.0314C82.1068 24.6338 81.1626 27.4441 79.2693 29.4584C77.3774 31.474 74.729 32.4825 71.3243 32.4825C68.0594 32.4825 65.4604 31.4518 63.5313 29.3904C61.5997 27.3292 60.6345 24.5436 60.6345 21.0316C60.6345 17.4401 61.5801 14.6496 63.4732 12.66C65.3664 10.6703 68.021 9.67561 71.4391 9.67561C73.5513 9.67561 75.4199 10.1366 77.0387 11.0572C78.6588 11.9777 79.9096 13.2965 80.7883 15.0143C81.6682 16.7296 82.1068 18.7366 82.1068 21.0314ZM85.055 32.0932H92.4797V10.0649H85.055V32.0932ZM85.0546 7.40027H92.4795V2.43628H85.0546V7.40027ZM107.522 26.4747C108.524 26.4747 109.718 26.22 111.111 25.7147V31.2573C110.11 31.6972 109.158 32.0123 108.253 32.1989C107.349 32.3881 106.287 32.482 105.072 32.482C102.58 32.482 100.783 31.8555 99.6794 30.6046C98.5806 29.3542 98.0296 27.4338 98.0296 24.8423V15.7613H95.4294V10.0669H98.0296V4.4413L105.511 3.14009V10.0667H110.248V15.7614H105.511V24.3354C105.511 25.7616 106.182 26.4747 107.522 26.4747ZM124.705 26.4747C125.708 26.4747 126.902 26.22 128.294 25.7147V31.2573C127.295 31.6972 126.342 32.0123 125.437 32.1989C124.531 32.3881 123.473 32.482 122.256 32.482C119.764 32.482 117.967 31.8555 116.865 30.6046C115.764 29.3542 115.213 27.4338 115.213 24.8423V15.7613H112.612V10.0669H115.213V4.35617L122.693 3.14009V10.0667H127.433V15.7614H122.694V24.3354C122.694 25.7616 123.365 26.4747 124.706 26.4747H124.705ZM137.663 18.3478C137.764 17.1418 138.109 16.2581 138.697 15.6934C139.288 15.1298 140.017 14.8481 140.889 14.8481C141.841 14.8481 142.597 15.1644 143.158 15.802C143.723 16.436 144.017 17.2851 144.041 18.3478H137.663ZM148.132 12.2726C146.368 10.5426 143.864 9.67615 140.625 9.67615C137.22 9.67615 134.6 10.671 132.764 12.6606C130.929 14.6503 130.01 17.5049 130.01 21.225C130.01 24.8272 131.003 27.6053 132.983 29.5554C134.964 31.5055 137.745 32.4818 141.328 32.4818C143.048 32.4818 144.529 32.3645 145.769 32.1309C147.003 31.8999 148.197 31.482 149.355 30.879L148.214 25.9146C147.372 26.2584 146.572 26.5227 145.815 26.6968C144.723 26.9504 143.524 27.0776 142.219 27.0776C140.788 27.0776 139.658 26.7279 138.83 26.0285C138.002 25.3278 137.561 24.3613 137.511 23.1305H150.781V19.748C150.781 16.4942 149.898 14.0015 148.132 12.2726ZM34.332 18.3478C34.4333 17.1418 34.7783 16.2581 35.3664 15.6934C35.9558 15.1298 36.6861 14.8481 37.56 14.8481C38.5091 14.8481 39.2654 15.1644 39.8277 15.802C40.3924 16.436 40.6853 17.2851 40.7113 18.3478H34.332ZM44.803 12.2726C43.037 10.5426 40.5345 9.67615 37.2943 9.67615C33.8883 9.67615 31.2697 10.671 29.4344 12.6606C27.5993 14.6503 26.6799 17.5049 26.6799 21.225C26.6799 24.8272 27.671 27.6053 29.6533 29.5554C31.633 31.5055 34.4148 32.4818 37.9975 32.4818C39.7177 32.4818 41.1982 32.3645 42.4389 32.1309C43.6722 31.8999 44.8661 31.482 46.0253 30.879L44.8834 25.9146C44.0417 26.2584 43.2409 26.5227 42.4858 26.6968C41.3911 26.9504 40.1936 27.0776 38.8883 27.0776C37.4585 27.0776 36.3279 26.7279 35.4999 26.0285C34.6706 25.3278 34.2307 24.3613 34.1801 23.1305H47.4502V19.748C47.4502 16.4942 46.5679 14.0015 44.803 12.2726Z" fill="#C4C4C4"/>
</g>
<defs>
<clipPath id="clip0">
<rect width="161.142" height="35" fill="white"/>
</clipPath>
</defs>
</svg>
