<svg width="147" height="70" viewBox="0 0 147 70" fill="none" xmlns="http://www.w3.org/2000/svg">
<g clip-path="url(#clip0)">
<path d="M65.9 0L0.0292358 24.0613L65.9 12.4277V0Z" fill="#C4C4C4"/>
<path d="M64.3515 53.2049C64.3515 51.9743 63.5174 51.4182 63.0409 51.2199C63.6365 50.902 64.0336 50.1873 64.0336 49.4729C64.0336 48.0038 63.0409 47.17 61.2939 47.17H57.5619V56.0242H61.2942C63.2 56.0639 64.3515 54.9919 64.3515 53.2049ZM61.2942 54.5549H59.1898V52.0534H61.2942C62.1677 52.0534 62.6442 52.4902 62.6442 53.324C62.6442 54.0784 62.128 54.5549 61.2942 54.5549ZM61.2545 50.5843H59.1898V48.6785H61.1751C61.9692 48.6785 62.3265 48.9961 62.3265 49.6314C62.3662 50.0682 62.1677 50.5843 61.2545 50.5843ZM65.5029 53.2446V49.5917H67.0911V53.1654C67.0911 54.2375 67.4882 54.7536 68.2823 54.7536C69.0766 54.7536 69.4734 54.2375 69.4734 53.1654V49.5917H71.0616V56.0636H69.4734V55.5475C69.0766 55.9842 68.5602 56.2225 67.9249 56.2225C65.8205 56.183 65.5029 54.3563 65.5029 53.2446ZM89.8815 56.0639H88.2936V49.592H89.8815V50.1481C90.2786 49.7111 90.8347 49.4729 91.5095 49.4729C93.058 49.4729 93.8918 50.5055 93.8918 52.411V56.0639H92.3036V52.4902C92.3036 51.4181 91.9462 50.902 91.1521 50.902C90.3577 50.902 89.9212 51.4581 89.9212 52.4902V56.0639H89.8815ZM74.1189 52.7681V56.0636H72.5307V49.5917H74.1189V52.7681ZM75.5483 47.6859L77.1365 46.8918V56.0636H75.5483V47.6859ZM82.2187 50.0287C81.8217 49.6317 81.3452 49.4329 80.7894 49.4329C79.2406 49.4329 78.2482 50.7035 78.2482 52.7284C78.2482 54.8727 79.2012 56.183 80.7496 56.183C81.3055 56.183 81.782 55.9842 82.2187 55.5477V56.0242H83.8069V46.8523L82.2187 47.6464V50.0287ZM81.107 54.7137C80.5511 54.7137 79.8761 54.3563 79.8761 52.7284C79.8761 51.2199 80.5114 50.9417 81.0673 50.9417C81.6629 50.9417 82.0202 51.299 82.219 51.577V54.1181C81.9805 54.396 81.7026 54.7137 81.107 54.7137ZM117.04 49.4329C116.524 49.4329 116.008 49.6714 115.611 50.0287V47.0506L114.022 47.845V56.0242H115.611V55.5477C116.008 55.9448 116.524 56.183 117.08 56.183C118.668 56.183 119.581 54.9125 119.581 52.7284C119.581 50.7035 118.628 49.4329 117.04 49.4329ZM116.762 50.902C117.357 50.902 117.953 51.3785 117.953 52.689C117.953 54.0387 117.556 54.674 116.762 54.674C116.166 54.674 115.77 54.2769 115.61 54.0784V51.5373C115.889 51.1402 116.285 50.902 116.762 50.902ZM98.8949 50.0287C98.4978 49.6317 98.0213 49.4329 97.4655 49.4329C95.917 49.4329 94.9243 50.7035 94.9243 52.7284C94.9243 54.8727 95.8773 56.183 97.4258 56.183C97.9819 56.183 98.4978 55.9842 98.8949 55.5477V55.7066C98.8949 56.4212 98.8949 57.3742 96.8302 57.4139H96.7508L97.3066 58.6844H97.3464C99.4505 58.6447 100.483 57.6124 100.483 55.4683V49.5917H98.8949V50.0287ZM98.8949 51.5373V54.0784C98.6566 54.396 98.339 54.7137 97.7434 54.7137C97.1873 54.7137 96.552 54.3563 96.552 52.7284C96.552 51.2199 97.1873 50.9417 97.7434 50.9417C98.339 50.902 98.6963 51.2593 98.8949 51.5373ZM105.446 51.1799C105.962 50.902 106.439 50.7432 107.114 50.7432C107.868 50.7432 108.266 51.0608 108.266 51.6564V52.0934C107.908 51.8946 107.352 51.7755 106.876 51.7755C105.685 51.7755 104.295 52.3316 104.295 53.8799C104.295 55.5475 105.606 56.1828 106.678 56.1828C107.114 56.1828 107.789 56.0239 108.226 55.5075V56.0237H109.814V51.6561C109.814 50.2667 108.822 49.3929 107.193 49.3929C106.32 49.3929 105.526 49.5915 104.771 50.0282L105.446 51.1799ZM105.923 53.9196C105.923 53.3637 106.32 53.0064 107.034 53.0064C107.511 53.0064 107.908 53.0858 108.305 53.324V54.1975C108.106 54.5549 107.63 54.8727 107.034 54.8727C106.32 54.8727 105.923 54.5151 105.923 53.9196ZM124.743 54.1578C124.465 54.4357 124.068 54.7139 123.472 54.7139C123.154 54.7139 122.122 54.5948 122.043 53.2845H126.013V52.8081C126.013 50.7434 124.941 49.4329 123.313 49.4329C121.646 49.4329 120.415 50.8625 120.415 52.8081C120.415 54.833 121.606 56.183 123.472 56.183C124.306 56.183 125.14 55.8651 125.735 55.1504L124.743 54.1578ZM122.043 52.1328C122.082 51.3387 122.559 50.7829 123.234 50.7829C124.068 50.7829 124.425 51.4581 124.465 52.1328H122.043ZM140.148 54.1578C139.87 54.4357 139.473 54.7139 138.878 54.7139C138.56 54.7139 137.528 54.5948 137.448 53.2845H141.419V52.8081C141.419 50.7434 140.347 49.4329 138.719 49.4329C137.051 49.4329 135.821 50.8625 135.821 52.8081C135.821 54.833 137.012 56.183 138.878 56.183C139.712 56.183 140.545 55.8651 141.181 55.1504L140.148 54.1578ZM137.448 52.1328C137.488 51.3387 137.964 50.7829 138.64 50.7829C139.473 50.7829 139.831 51.4581 139.87 52.1328H137.448ZM133.597 53.8005C133.597 54.3566 133.796 54.674 134.272 54.674C134.59 54.674 134.947 54.5548 135.225 54.396L135.026 55.9048C134.669 56.1034 134.192 56.2225 133.676 56.2225C132.406 56.2225 131.969 55.1504 131.969 54.2375V51.1008H131.016V49.592H132.009V47.9244L133.597 47.1303V49.5917H135.066V51.1005H133.597V53.8005ZM130.5 55.9048C130.143 56.1034 129.666 56.2225 129.15 56.2225C127.88 56.2225 127.443 55.1504 127.443 54.2375V51.1008H126.45V49.592H127.443V47.9244L129.031 47.1303V49.5917H130.381V51.1005H129.031V53.8402C129.031 54.396 129.23 54.7137 129.706 54.7137C130.024 54.7137 130.381 54.5946 130.659 54.4357L130.5 55.9048ZM146.263 51.3784C145.955 51.1436 145.578 51.0178 145.191 51.0211C144.397 51.0211 144.039 51.4976 144.039 52.5299V56.0239H142.451V49.5523H144.039V50.1081C144.436 49.6317 144.913 49.3935 145.469 49.3935C145.906 49.3935 146.382 49.552 146.66 49.7905L146.263 51.3784ZM74.1189 47.845V48.6391H72.5307V47.0509H74.1189V47.845ZM85.2363 49.5917H86.8245V56.0636H85.2363V49.5917ZM86.8245 47.845V48.6391H85.2363V47.0509H86.8245V47.845ZM130.699 61.3444C130.302 60.9474 129.825 60.7488 129.269 60.7488C127.721 60.7488 126.728 62.0194 126.728 64.0444C126.728 66.1884 127.681 67.4987 129.23 67.4987C129.786 67.4987 130.262 67.3002 130.699 66.8637V67.3401H132.287V58.168L130.699 58.9624V61.3444ZM129.587 66.0296C129.031 66.0296 128.356 65.6723 128.356 64.0446C128.356 62.5358 128.991 62.2579 129.547 62.2579C130.143 62.2579 130.5 62.6152 130.699 62.8929V65.434C130.46 65.6723 130.182 66.0296 129.587 66.0296ZM76.4613 62.6944C76.1535 62.4595 75.7763 62.3337 75.3892 62.337C74.5951 62.337 74.2378 62.8135 74.2378 63.8456V67.3399H72.6496V60.868H74.2378V61.4238C74.6346 60.9474 75.111 60.7091 75.6671 60.7091C76.1039 60.7091 76.5804 60.868 76.8583 61.1062L76.4613 62.6944ZM63.8748 60.868H65.463L63.6365 67.3399H62.2471L61.5324 64.6399C61.4133 64.1635 61.2545 63.6073 61.1751 63.2503C61.0954 63.5282 60.9368 64.3223 60.8177 64.7193L60.103 67.3401H58.7531L56.9266 60.8682H58.5543L59.1501 63.2902C59.2295 63.6873 59.3883 64.402 59.4678 64.8784C59.5472 64.402 59.7457 63.6873 59.8648 63.2505L60.5398 60.8682H61.8898L62.5647 63.2505C62.6839 63.6875 62.8427 64.3623 62.9618 64.8784C63.0412 64.4814 63.1603 63.8458 63.3191 63.2505L63.8748 60.868ZM68.719 60.7488C67.012 60.7488 65.7811 62.1782 65.7811 64.1238C65.7811 66.0693 67.012 67.4987 68.719 67.4987C70.4263 67.4987 71.6572 66.0693 71.6572 64.1238C71.6572 62.1388 70.4263 60.7488 68.719 60.7488ZM68.719 65.9902C67.9249 65.9902 67.4088 65.2358 67.4088 64.124C67.4088 62.9726 67.9249 62.2582 68.719 62.2582C69.5134 62.2582 70.0295 63.0123 70.0295 64.124C70.0295 65.2358 69.5131 65.9902 68.719 65.9902ZM122.837 62.6944C122.529 62.4595 122.152 62.3337 121.765 62.337C120.971 62.337 120.614 62.8135 120.614 63.8456V67.3399H119.025V60.868H120.614V61.4238C121.01 60.9474 121.487 60.7091 122.043 60.7091C122.48 60.7091 122.956 60.868 123.234 61.1062L122.837 62.6944ZM110.29 60.868H111.878L110.052 67.3399H108.662L107.948 64.6399C107.828 64.1635 107.67 63.6073 107.59 63.2503C107.511 63.5282 107.352 64.3223 107.233 64.7193L106.518 67.3401H105.129V67.3004L103.302 60.8682H104.93L105.526 63.2902C105.605 63.6873 105.764 64.402 105.843 64.8784C105.923 64.402 106.121 63.6873 106.24 63.2505L106.916 60.8682H108.266L108.94 63.2505C109.06 63.6875 109.218 64.3623 109.338 64.8784C109.417 64.4814 109.536 63.8458 109.695 63.2505L110.29 60.868ZM115.095 60.7488C113.387 60.7488 112.156 62.1782 112.156 64.1238C112.156 66.0693 113.387 67.4987 115.095 67.4987C116.802 67.4987 118.033 66.0693 118.033 64.1238C118.033 62.1782 116.802 60.7488 115.095 60.7488ZM115.095 65.9902C114.3 65.9902 113.784 65.2755 113.784 64.124C113.784 62.9726 114.3 62.2582 115.095 62.2582C115.889 62.2582 116.405 63.0123 116.405 64.124C116.405 65.2358 115.889 65.9902 115.095 65.9902ZM81.2261 63.012L83.2114 67.3401H81.4643L80.1144 64.3223L79.2806 65.3946V67.3401H77.6924V59.0018L79.2806 58.2077V63.3694C79.4727 63.1 79.6713 62.8352 79.8761 62.5753L81.1467 60.9077H82.9731L81.2261 63.012ZM88.8095 67.3401H87.2213V60.868H88.8095V61.4238C89.2066 60.9871 89.7624 60.7488 90.4374 60.7488C91.9859 60.7488 92.8197 61.7814 92.8197 63.687V67.3399H91.2315V63.7662C91.2315 62.6941 90.8742 62.178 90.0801 62.178C89.2857 62.178 88.8492 62.7341 88.8492 63.7662V67.3399H88.8095V67.3401ZM97.8228 61.3444C97.4258 60.9474 96.9493 60.7488 96.3934 60.7488C94.8447 60.7488 93.8523 62.0194 93.8523 64.0444C93.8523 66.1884 94.8052 67.4987 96.3537 67.4987C96.9096 67.4987 97.4258 67.3002 97.8228 66.8637V67.0222C97.8228 67.7369 97.8228 68.6898 95.7581 68.7295H95.6785L96.2346 70.0001H96.2743C98.3784 69.9604 99.411 68.9278 99.411 66.7837V60.9074H97.8228V61.3444ZM97.8228 62.8535V65.3946C97.5846 65.7122 97.2667 66.0296 96.6711 66.0296C96.1152 66.0296 95.48 65.6723 95.48 64.0446C95.48 62.5358 96.1152 62.2579 96.6711 62.2579C97.2667 62.2179 97.624 62.5753 97.8228 62.8535ZM84.1643 60.868H85.7525V67.3401H84.1643V60.868ZM85.7525 59.1606V59.955H84.1643V58.3668H85.7525V59.1606ZM124.028 59.0018L125.616 58.2077V67.3401H124.028V59.0018ZM10.5908 54.1975H22.6212V47.2094H10.5908V41.7301H23.9315L19.5245 34.0273H0.624878V67.3401H27.267V59.6768H10.5908V54.1975ZM45.0151 34.0273L39.377 44.9065L33.7386 34.0273H22.6609L34.2945 54.1975V67.3401H44.2605V54.1975L55.8938 34.0273H45.0151Z" fill="#C4C4C4"/>
</g>
<defs>
<clipPath id="clip0">
<rect width="146.689" height="70" fill="white"/>
</clipPath>
</defs>
</svg>
