<svg width="90" height="90" viewBox="0 0 90 90" fill="none" xmlns="http://www.w3.org/2000/svg">
<g clip-path="url(#clip0)">
<path fill-rule="evenodd" clip-rule="evenodd" d="M3.60001 93.6001H93.6V3.6001H3.60001V93.6001Z" fill="#C4C4C4"/>
<path fill-rule="evenodd" clip-rule="evenodd" d="M73.8753 24.0609H71.2041V13.5321H73.7184V14.7106C74.0322 14.0032 74.818 13.3747 75.8396 13.2963C77.5686 13.2178 78.747 14.2394 78.747 16.4391V24.0605H75.9974V16.1253C75.9974 15.1821 75.9974 14.3968 75.368 14.2394C75.1327 14.161 74.7395 14.2394 74.4248 14.4748C74.0317 14.8679 73.8748 15.339 73.8748 16.1253L73.8753 24.0609ZM28.4607 14.2394C27.8322 13.6894 27.0464 13.2963 26.1037 13.2963C25.161 13.2963 24.4536 13.6894 23.7467 14.2394C22.6467 15.1821 21.9393 16.9106 21.9393 18.7965C21.9393 20.7608 22.6467 22.4104 23.7467 23.3535C24.4536 23.9036 25.161 24.2962 26.1037 24.2962C27.0464 24.2962 27.8322 23.9036 28.4607 23.3535C29.6396 22.4104 30.2681 20.7603 30.2681 18.7965C30.2676 16.9106 29.6392 15.1821 28.4607 14.2394ZM27.4391 18.7965C27.4391 20.7608 27.4391 22.3324 27.1248 23.1178C26.8891 23.5104 26.6533 23.7462 26.1032 23.7462C25.6321 23.7462 25.3174 23.5104 25.1605 23.1178C24.7674 22.3319 24.7674 20.7603 24.7674 18.7965C24.7674 16.9106 24.7674 15.2606 25.1605 14.4748C25.3174 14.0821 25.6321 13.8463 26.1032 13.8463C26.6533 13.8463 26.8891 14.0816 27.1248 14.4748C27.518 15.2606 27.4391 16.9106 27.4391 18.7965ZM55.8829 28.068V30.8965H55.3328C55.0181 29.7185 54.5466 28.6969 53.2892 28.618C52.5038 28.54 51.7964 29.0111 51.718 29.718C51.6396 30.4249 51.8758 31.0534 53.2892 31.8392C55.0966 32.8608 56.5108 33.3324 56.5108 35.4536C56.5108 37.7321 54.5466 38.8321 52.897 38.8321H49.7537V34.9031H50.3037C50.6969 36.9458 51.3253 38.2032 52.819 38.2816C53.7612 38.2816 54.4686 37.7316 54.4686 36.71C54.4686 35.6884 53.8392 35.0599 52.3465 34.1957C50.6969 33.1741 49.6753 32.5456 49.6753 31.1314C49.6753 29.2455 51.0111 28.067 53.1323 28.067C53.8392 28.068 55.8829 28.068 55.8829 28.068ZM59.3399 24.0609V16.4391C59.3399 14.2394 58.1609 13.2178 56.4324 13.2963C55.2535 13.3747 54.5466 14.161 54.2319 14.789C53.8387 13.6894 52.9754 13.2178 51.7175 13.2963C50.6959 13.3747 49.9111 14.0036 49.5964 14.7106V13.5321H47.1605V24.0609H49.8317V16.1253C49.8317 15.339 49.9111 14.8679 50.3817 14.4748C50.6964 14.2394 51.0111 14.161 51.2464 14.2394C51.8758 14.3963 51.8758 15.1821 51.8758 16.1253V24.0609H54.547V16.0469C54.547 15.339 54.7039 14.8679 55.097 14.4748C55.4117 14.2394 55.7255 14.161 55.9618 14.2394C56.5902 14.3963 56.6687 15.1821 56.6687 16.1253V24.0609H59.3399ZM32.075 11.3324H34.8251V24.0609H32.075V11.3324ZM44.5682 24.0609V11.3324H41.8181V14.3179C41.5828 13.7679 41.0323 13.3752 40.2469 13.3752C38.2826 13.3752 36.711 15.4179 36.6326 18.5607C36.5541 20.6823 37.261 24.2178 40.0111 24.2178C41.1112 24.2178 41.7396 23.5893 41.9754 23.0398V24.0614H44.5682V24.0609ZM41.3465 14.3963C41.8965 15.1821 41.8965 17.0675 41.8965 18.5602C41.8965 20.1319 41.975 22.1746 41.3465 23.0388C41.1107 23.3531 40.8749 23.51 40.4818 23.51C39.9322 23.51 39.6175 22.8815 39.4602 21.8599C39.3817 20.9167 39.3817 19.7383 39.3817 18.4813C39.3817 16.3602 39.5386 14.0027 40.5602 14.0027C40.9534 14.0036 41.1107 14.161 41.3465 14.3963ZM67.5108 13.8463C68.2187 14.2394 68.6898 14.8679 68.6898 16.2822V24.0609H66.0961V22.8824C65.7823 23.7467 64.9181 24.2967 63.7386 24.2967C62.7955 24.2967 61.1459 23.8256 61.1459 21.3897C61.1459 19.1112 62.6395 18.6396 64.2891 17.9327C65.7818 17.3042 65.9387 17.2253 65.9387 16.5969V14.8684C65.9387 14.1615 65.5456 13.8468 64.7607 13.8468C64.446 13.9252 63.896 14.0821 63.896 14.4752C63.8176 14.9468 64.3676 14.9468 64.446 15.6542C64.5245 16.7542 63.6597 17.1469 62.8749 17.0685C62.3248 17.0685 61.6959 16.7542 61.6175 15.89C61.539 14.4752 63.1102 13.2967 65.3107 13.2967C66.3323 13.2963 66.9608 13.5321 67.5108 13.8463ZM65.9397 17.7749L65.0749 18.3249C64.2112 18.8749 64.0533 19.5818 63.9754 20.3677C63.8969 20.9961 63.8969 21.5461 63.9754 22.4888C64.0538 23.3531 64.6038 23.5104 65.0749 23.3531C65.6259 23.1173 65.9397 22.0962 65.9397 20.9956V17.7749ZM28.618 28.5395C29.3254 29.0106 29.7181 29.5607 29.7181 30.9749V38.8326H27.2038V37.6541C26.8891 38.4399 26.0253 38.9895 24.8463 38.9895C23.8247 38.9895 22.2536 38.5968 22.2536 36.1609C22.2536 33.8824 23.7467 33.4108 25.3179 32.7039C26.8891 31.9965 27.0464 31.9181 27.0464 31.3681V29.6396C27.0464 28.8538 26.6537 28.54 25.8679 28.618C25.5532 28.618 25.0037 28.7753 25.0037 29.168C24.9252 29.718 25.4748 29.718 25.5532 30.4249C25.6321 31.4465 24.7679 31.8392 23.9825 31.8392C23.4325 31.7608 22.8036 31.4465 22.7251 30.5823C22.6467 29.2464 24.2179 28.068 26.4179 28.068C27.4391 28.068 28.068 28.2253 28.618 28.5395ZM27.0464 32.4681L26.1821 33.0181C25.3179 33.5682 25.1605 34.2751 25.0821 35.0609C25.0037 35.6894 25.0037 36.3183 25.0821 37.1821C25.0821 38.1252 25.6321 38.2821 26.1037 38.0463C26.7322 37.8105 27.0464 36.8678 27.0464 35.6893V32.4681ZM47.6325 31.2107C47.6325 29.0106 46.4536 27.9106 44.7251 28.068C43.8608 28.1464 43.1534 28.5395 42.7603 29.0896V26.0257H40.0891V33.2544C40.0891 35.9256 38.2032 38.4399 36.3179 38.3615C34.982 38.3615 34.6678 37.3399 34.5104 36.2398C34.2747 34.6682 34.2747 32.8613 34.432 30.897C34.5894 29.64 34.9036 28.6184 35.8467 28.6184C36.5537 28.6184 36.6326 29.09 36.3179 29.4043C36.0032 29.7974 35.5321 30.1901 35.7678 31.0543C36.0032 31.9975 37.4963 32.1544 38.2033 31.4475C38.7533 30.819 38.6748 29.7974 38.2817 29.1689C37.8101 28.3831 37.0248 28.0689 35.8463 28.0689C34.3531 28.0689 31.5245 29.4043 31.5245 33.6475C31.5245 38.2046 34.4315 38.9899 36.0816 38.9899C37.9675 38.9899 39.6175 37.3403 40.0886 36.004V38.8331H42.7598V30.896C42.7598 30.1107 42.9172 29.6391 43.3099 29.246C43.6241 29.0106 44.0172 28.9317 44.253 29.0106C44.882 29.1675 44.882 29.9533 44.882 30.896V38.8321H47.6321V31.2107H47.6325ZM20.1319 11.0962V15.5748H19.5819C19.1103 13.3747 18.0892 11.7247 16.6744 11.6462C15.7317 11.5678 15.1817 12.1173 14.7101 12.9036C14.239 13.8463 14.0032 15.8106 14.0032 18.1676C14.0032 20.3677 14.0817 22.0177 14.3175 23.1962C14.4743 23.7462 14.8675 24.6109 15.8891 24.6109C16.4391 24.6109 16.8318 24.4536 17.0676 24.1394C17.4602 23.6678 17.5387 22.7251 17.5387 22.0966V19.9754C17.5387 19.1896 17.3034 18.7181 16.9102 18.4827C16.596 18.3254 16.1244 18.3254 15.8886 18.2469V17.6969H20.2883V28.9327H19.7383C19.503 28.0684 19.3456 27.44 18.9525 26.7326C18.5598 26.0257 17.8524 25.2399 16.674 25.2399C15.417 25.1614 14.4739 25.9472 14.4739 27.1253C14.4739 28.6969 15.417 29.0896 17.1455 30.0327C18.7956 30.9754 20.9173 31.7612 20.9173 34.5113C20.9173 37.183 18.6387 38.8331 16.046 38.8331H11.8816V33.4108H12.4316C13.139 37.4963 14.8675 38.2037 16.0464 38.2037C17.5387 38.2037 18.2461 37.2605 18.2461 35.9251C18.1676 34.1966 16.9891 33.5682 15.3386 32.7039C12.9821 31.3681 11.8816 30.7392 11.8816 28.54C11.96 26.6537 13.4532 25.4757 15.1028 25.0041C11.6458 24.6114 10.6242 21.4686 10.7031 18.0896C10.7031 14.711 12.6674 11.0967 16.5171 11.0967L20.1319 11.0962Z" fill="white"/>
</g>
<defs>
<clipPath id="clip0">
<rect width="90" height="90" fill="white"/>
</clipPath>
</defs>
</svg>
