<svg width="89" height="90" viewBox="0 0 89 90" fill="none" xmlns="http://www.w3.org/2000/svg">
<g clip-path="url(#clip0)">
<path fill-rule="evenodd" clip-rule="evenodd" d="M0 0H88.9286V90H0V0Z" fill="#C4C4C4"/>
<path fill-rule="evenodd" clip-rule="evenodd" d="M50.596 17.4519H73.3929V40.2948H50.596V17.4519ZM23.0358 51.8494V54.084H26.9648V65.9065H29.674V53.9937H33.3322V51.759L23.0358 51.8509V51.8494ZM21.0123 54.6198V52.3851C18.8388 51.4024 16.3393 51.1055 13.7801 52.3851C9.58321 54.2616 9.43321 63.5539 13.6317 65.3708C16.0424 66.5922 21.0705 66.0259 21.5771 64.9529V57.5968H16.5781V59.533H18.7791V63.4055C11.547 66.9198 10.2077 50.0325 21.0123 54.6198ZM37.7388 59.4136H40.3271C42.47 59.5039 43.0363 63.5539 40.2383 63.5233H37.7388V59.4136ZM37.7388 53.7259H40.3271C42.47 54.1131 41.697 57.2999 40.2383 57.3886H37.7388V53.7259ZM35.0603 51.5524V65.7871H42.173C45.8036 64.4769 45.9536 58.8488 42.173 58.2519C45.6552 57.8662 45.8342 51.4621 39.822 51.4621L35.0603 51.5524ZM47.6189 55.5427V57.6565C49.523 57.1208 53.6603 55.6315 53.273 58.7892C49.6424 58.5504 47.172 59.2055 46.7557 61.4677C46.0715 66.3534 51.3092 66.8295 53.5118 64.4172V65.5789H56.0113V57.0014C55.3868 54.231 51.2511 53.8744 47.6189 55.5427ZM49.7312 61.0529C50.2975 60.3075 52.1128 60.3366 53.3327 60.6948V62.5713C51.3399 64.7141 48.1256 63.733 49.7327 61.0514L49.7312 61.0529ZM61.1909 58.0744C61.846 57.3596 65.3281 56.0187 65.8638 58.0744V65.6386H68.6603V57.6274C68.0649 54.2907 64.8797 53.6953 61.0118 55.959V54.7085H58.3638V65.6983H61.1603L61.1909 58.0744ZM77.4399 54.5891L73.7802 59.5024L77.6496 65.5483L81.0123 65.4596L76.7572 59.6524L80.596 54.6779L77.4414 54.5891H77.4399ZM70.745 50.9846H73.5123V65.5483H70.7434V50.9861L70.745 50.9846Z" fill="white"/>
<path fill-rule="evenodd" clip-rule="evenodd" d="M50.5958 17.4519H73.3928V40.2948H50.5958V17.4519Z" fill="white"/>
</g>
<defs>
<clipPath id="clip0">
<rect width="88.9286" height="90" fill="white"/>
</clipPath>
</defs>
</svg>
