<svg width="267" height="73" viewBox="0 0 267 73" fill="none" xmlns="http://www.w3.org/2000/svg">
<g clip-path="url(#clip0)">
<path fill-rule="evenodd" clip-rule="evenodd" d="M87.8076 38.1339L88.7102 32.9945C88.7102 32.9945 81.7588 30.7369 76.1012 34.9238V55.4834H82.1091V38.7796C84.5033 36.8503 87.8076 38.1339 87.8076 38.1339Z" fill="#C4C4C4"/>
<mask id="mask0" mask-type="alpha" maskUnits="userSpaceOnUse" x="76" y="32" width="13" height="24">
<path d="M76.1012 34.9233C78.8233 32.9093 81.8451 32.3864 84.2479 32.3868C86.839 32.3868 88.7106 32.9944 88.7106 32.9944L87.8075 38.1338C87.8075 38.1338 84.5032 36.8503 82.1091 38.7791V55.4829H76.1012V34.9233Z" fill="white"/>
</mask>
<g mask="url(#mask0)">
<path fill-rule="evenodd" clip-rule="evenodd" d="M-289.622 119.205L556.451 119.205L556.451 -1079.4H-289.622L-289.622 119.205Z" fill="#C4C4C4"/>
</g>
<mask id="mask1" mask-type="alpha" maskUnits="userSpaceOnUse" x="76" y="32" width="13" height="24">
<path d="M76.1012 34.9233C78.8233 32.9093 81.8447 32.3868 84.2479 32.3868C86.839 32.3868 88.7106 32.9944 88.7106 32.9944L87.8075 38.1338C87.8075 38.1338 84.5032 36.8503 82.1091 38.7791V55.4829H76.1012V34.9233Z" fill="white"/>
</mask>
<g mask="url(#mask1)">
<path fill-rule="evenodd" clip-rule="evenodd" d="M66.0289 65.5557H98.7828V22.3146H66.0289V65.5557Z" fill="#C4C4C4"/>
</g>
<path fill-rule="evenodd" clip-rule="evenodd" d="M36.0118 27.1331L42.017 26.0018V32.6884H47.9594V38.0357H42.017V46.0102C42.017 47.3687 42.2367 48.4471 42.6859 49.2446C43.1299 50.0543 44.0204 50.4556 45.3578 50.4556C46.0117 50.4556 46.6684 50.3929 47.3612 50.2599C48.0344 50.1245 48.662 49.9507 49.2269 49.7232L50.0766 54.732C49.3497 55.0439 48.5463 55.3146 47.6605 55.544C46.772 55.7712 45.681 55.8896 44.392 55.8896C42.7533 55.8896 41.3992 55.6507 40.3223 55.1768C39.251 54.703 38.3895 54.038 37.7473 53.1895C37.1052 52.3484 36.6536 51.3163 36.4002 50.1077C36.1421 48.9014 36.0118 47.5691 36.0118 46.0996V27.1331Z" fill="#C4C4C4"/>
<mask id="mask2" mask-type="alpha" maskUnits="userSpaceOnUse" x="36" y="26" width="15" height="30">
<path d="M36.0121 27.1329L42.0173 26.0015V32.6881H47.9597V38.0354H42.0173V46.01C42.0173 47.3689 42.2369 48.4469 42.6857 49.2444C43.1298 50.0545 44.0203 50.4554 45.3576 50.4554C46.0116 50.4554 46.6679 50.3926 47.361 50.2596C48.0342 50.1243 48.6623 49.9505 49.2272 49.7234L50.0765 54.7318C49.35 55.044 48.5461 55.3147 47.6604 55.5442C46.7718 55.7713 45.6809 55.8894 44.3918 55.8894C42.7528 55.8894 41.399 55.6505 40.3226 55.1766C39.2508 54.7027 38.389 54.0378 37.7472 53.1897C37.105 52.3482 36.6539 51.3161 36.4004 50.1074C36.1419 48.9011 36.0121 47.5693 36.0121 46.0994V27.1329Z" fill="white"/>
</mask>
<g mask="url(#mask2)">
<path fill-rule="evenodd" clip-rule="evenodd" d="M-289.622 119.205L556.451 119.205L556.451 -1079.4H-289.622L-289.622 119.205Z" fill="#C4C4C4"/>
<path fill-rule="evenodd" clip-rule="evenodd" d="M25.9393 65.9619H60.1485V15.929H25.9393L25.9393 65.9619Z" fill="#C4C4C4"/>
</g>
<path fill-rule="evenodd" clip-rule="evenodd" d="M97.6051 50.879C98.7035 50.879 99.4806 50.7578 99.942 50.5306C100.4 50.3012 100.622 49.8516 100.622 49.1941C100.622 48.6743 100.333 48.2224 99.7388 47.838C99.1452 47.4465 98.252 47.0114 97.0406 46.5156C96.1014 46.1409 95.247 45.7545 94.477 45.3555C93.7167 44.9495 93.0651 44.4756 92.5269 43.9123C91.9906 43.3517 91.5756 42.6793 91.2762 41.8963C90.9769 41.1274 90.8349 40.1969 90.8349 39.0993C90.8349 36.9742 91.5756 35.2893 93.0506 34.054C94.5276 32.8238 96.5506 32.1954 99.1331 32.1954C100.424 32.1954 101.66 32.3185 102.843 32.5676C104.023 32.8093 104.967 33.0851 105.66 33.3628L104.615 38.3665C103.915 38.108 103.154 37.8808 102.336 37.6827C101.518 37.4799 100.596 37.3732 99.5771 37.3732C97.6969 37.3732 96.7554 37.9389 96.7554 39.0581C96.7554 39.3166 96.7966 39.5465 96.8786 39.747C96.9606 39.9502 97.1202 40.1436 97.3568 40.3295C97.6051 40.5135 97.9287 40.721 98.3485 40.934C98.7659 41.1588 99.2971 41.3906 99.942 41.6543C101.252 42.1764 102.341 42.684 103.2 43.1968C104.062 43.7091 104.738 44.2485 105.237 44.8475C105.735 45.4328 106.087 46.0809 106.285 46.8007C106.483 47.519 106.587 48.3479 106.587 49.2934C106.587 51.5341 105.8 53.2284 104.233 54.3743C102.659 55.5155 100.434 56.0906 97.5592 56.0906C95.6813 56.0906 94.1172 55.9239 92.8694 55.5736C91.6168 55.2327 90.7526 54.938 90.27 54.7105L91.2762 49.4938C92.2927 49.9242 93.3499 50.2576 94.4169 50.5095C95.4981 50.7558 96.5506 50.879 97.6051 50.879Z" fill="#C4C4C4"/>
<mask id="mask3" mask-type="alpha" maskUnits="userSpaceOnUse" x="90" y="32" width="17" height="25">
<path d="M93.0503 34.0544C94.5277 32.8238 96.5504 32.1954 99.1328 32.1954C100.425 32.1954 101.66 32.3185 102.843 32.5676C104.023 32.8093 104.967 33.0847 105.66 33.3628L104.615 38.3665C103.914 38.108 103.155 37.8808 102.336 37.6827C101.518 37.4795 100.596 37.3736 99.5773 37.3736C97.6967 37.3736 96.7555 37.9385 96.7555 39.0581C96.7555 39.3166 96.7963 39.5465 96.8783 39.747C96.9607 39.9502 97.1204 40.1436 97.3569 40.3295C97.6049 40.5135 97.9289 40.721 98.3486 40.934C98.766 41.1584 99.2968 41.391 99.9417 41.6543C101.252 42.1764 102.341 42.684 103.2 43.1968C104.062 43.7091 104.738 44.2481 105.238 44.8475C105.735 45.4328 106.087 46.0805 106.285 46.8007C106.483 47.519 106.586 48.3479 106.586 49.2934C106.586 51.5341 105.799 53.2288 104.233 54.3743C102.66 55.5155 100.434 56.0906 97.5593 56.0906C95.6814 56.0906 94.1174 55.9239 92.8695 55.5736C91.6165 55.2327 90.7527 54.938 90.2698 54.7105L91.2764 49.4938C92.2928 49.9245 93.3497 50.2576 94.4167 50.5095C95.4979 50.7555 96.5504 50.879 97.6049 50.879C98.7033 50.879 99.4808 50.7582 99.9417 50.5306C100.4 50.3012 100.622 49.8516 100.622 49.1941C100.622 48.6743 100.333 48.2224 99.7389 47.838C99.145 47.4465 98.2517 47.0114 97.0403 46.5156C96.1012 46.1409 95.2472 45.7545 94.4767 45.3555C93.7169 44.9495 93.0648 44.4756 92.527 43.9123C91.9908 43.3513 91.5757 42.6793 91.2764 41.8963C90.9771 41.127 90.8347 40.1969 90.8347 39.0993C90.8347 36.9746 91.5757 35.2897 93.0503 34.0544Z" fill="white"/>
</mask>
<g mask="url(#mask3)">
<path fill-rule="evenodd" clip-rule="evenodd" d="M-289.622 119.205L556.451 119.205L556.451 -1079.4H-289.622L-289.622 119.205Z" fill="#C4C4C4"/>
<path fill-rule="evenodd" clip-rule="evenodd" d="M80.1979 66.1631H116.659V22.1229H80.1979V66.1631Z" fill="#C4C4C4"/>
</g>
<path fill-rule="evenodd" clip-rule="evenodd" d="M125.095 42.4633C124.557 44.6487 123.99 46.8244 123.384 48.9757C122.781 51.1345 122.138 53.3054 121.475 55.4905H116.8C116.314 54.2818 115.786 52.846 115.221 51.1803C114.651 49.5076 114.07 47.6921 113.459 45.7173C112.855 43.7492 112.238 41.6657 111.605 39.4611C110.97 37.2662 110.355 35.047 109.766 32.8011H116.095C116.305 33.8333 116.543 34.9674 116.802 36.1878C117.058 37.4109 117.328 38.6706 117.611 39.9663C117.893 41.2574 118.195 42.555 118.503 43.8653C118.815 45.1755 119.134 46.4301 119.457 47.6368C119.807 46.3724 120.15 45.0814 120.485 43.759C120.816 42.4346 121.142 41.1338 121.453 39.8553C121.76 38.5788 122.061 37.3388 122.336 36.1446C122.617 34.9524 122.865 33.8333 123.085 32.8011H127.432C127.654 33.8333 127.888 34.9524 128.16 36.1446C128.426 37.3388 128.709 38.5788 129.008 39.8553C129.298 41.1338 129.614 42.4346 129.93 43.759C130.256 45.0814 130.589 46.3724 130.934 47.6368C131.26 46.4301 131.584 45.1755 131.909 43.8653C132.235 42.555 132.542 41.2574 132.822 39.9663C133.102 38.6706 133.372 37.4109 133.633 36.1878C133.891 34.9674 134.125 33.8333 134.34 32.8011H140.587C139.993 35.047 139.382 37.2662 138.748 39.4611C138.108 41.6657 137.497 43.7492 136.887 45.7173C136.285 47.6921 135.692 49.5076 135.115 51.1803C134.533 52.846 133.997 54.2818 133.519 55.4905H128.844C128.168 53.3054 127.512 51.1345 126.865 48.9757C126.22 46.8244 125.636 44.6487 125.095 42.4633Z" fill="#C4C4C4"/>
<mask id="mask4" mask-type="alpha" maskUnits="userSpaceOnUse" x="109" y="32" width="32" height="24">
<path d="M134.34 32.8011H140.587C139.993 35.047 139.382 37.2662 138.747 39.4607C138.108 41.6657 137.497 43.7496 136.886 45.7173C136.285 47.6921 135.692 49.5076 135.114 51.1803C134.533 52.846 133.997 54.2814 133.519 55.4905H128.844C128.168 53.3054 127.512 51.1341 126.865 48.9753C126.22 46.8244 125.636 44.6487 125.096 42.4633C124.557 44.6487 123.99 46.8244 123.384 48.9753C122.781 51.1341 122.139 53.3054 121.475 55.4905H116.799C116.314 54.2814 115.786 52.846 115.221 51.1803C114.651 49.5076 114.07 47.6921 113.459 45.7173C112.855 43.7496 112.238 41.6657 111.605 39.4607C110.97 37.2662 110.355 35.047 109.766 32.8011H116.095C116.305 33.8333 116.544 34.967 116.802 36.1878C117.058 37.4109 117.328 38.6706 117.611 39.9659C117.893 41.257 118.195 42.555 118.504 43.8653C118.815 45.1755 119.134 46.4301 119.457 47.6368C119.807 46.3724 120.15 45.081 120.485 43.759C120.816 42.4346 121.142 41.1338 121.453 39.8553C121.76 38.5784 122.061 37.3384 122.337 36.1446C122.617 34.9524 122.865 33.8333 123.085 32.8011H127.432C127.654 33.8333 127.888 34.9524 128.161 36.1446C128.426 37.3384 128.709 38.5784 129.008 39.8553C129.298 41.1338 129.614 42.4346 129.93 43.759C130.256 45.081 130.589 46.3724 130.934 47.6368C131.26 46.4301 131.583 45.1755 131.909 43.8653C132.235 42.555 132.542 41.257 132.822 39.9659C133.102 38.6706 133.372 37.4109 133.633 36.1878C133.891 34.967 134.125 33.8333 134.34 32.8011Z" fill="white"/>
</mask>
<g mask="url(#mask4)">
<path fill-rule="evenodd" clip-rule="evenodd" d="M-289.622 119.205L556.451 119.205L556.451 -1079.4H-289.622L-289.622 119.205Z" fill="#C4C4C4"/>
<path fill-rule="evenodd" clip-rule="evenodd" d="M99.6937 65.5632H150.659V22.7291H99.6937V65.5632Z" fill="#C4C4C4"/>
</g>
<path fill-rule="evenodd" clip-rule="evenodd" d="M144.832 55.4814H150.827V32.7969H144.832V55.4814Z" fill="#C4C4C4"/>
<mask id="mask5" mask-type="alpha" maskUnits="userSpaceOnUse" x="144" y="32" width="7" height="24">
<path d="M144.832 55.4819V32.7974H150.828V55.4819H144.832Z" fill="white"/>
</mask>
<g mask="url(#mask5)">
<path fill-rule="evenodd" clip-rule="evenodd" d="M-289.622 119.205L556.451 119.205L556.451 -1079.4H-289.622L-289.622 119.205Z" fill="#C4C4C4"/>
<path fill-rule="evenodd" clip-rule="evenodd" d="M134.759 65.554H160.9V22.7245H134.759V65.554Z" fill="#C4C4C4"/>
</g>
<path fill-rule="evenodd" clip-rule="evenodd" d="M155.597 27.1399L161.597 26.0015V32.8085H167.535V38.146H161.597V46.1284C161.597 47.4794 161.819 48.5676 162.261 49.3628C162.703 50.1678 163.598 50.5715 164.938 50.5715C165.587 50.5715 166.253 50.5134 166.934 50.3804C167.622 50.2498 168.245 50.0638 168.812 49.839L169.655 54.8431C168.928 55.1616 168.119 55.4327 167.238 55.6646C166.347 55.8917 165.269 56.0078 163.975 56.0078C162.334 56.0078 160.979 55.7713 159.905 55.2923C158.829 54.8258 157.969 54.166 157.328 53.31C156.685 52.469 156.237 51.4318 155.979 50.2306C155.718 49.0196 155.597 47.6803 155.597 46.2174V27.1399Z" fill="#C4C4C4"/>
<mask id="mask6" mask-type="alpha" maskUnits="userSpaceOnUse" x="155" y="26" width="15" height="31">
<path d="M155.597 27.1399L161.597 26.0015V32.8085H167.535V38.146H161.597V46.1284C161.597 47.4794 161.819 48.5672 162.261 49.3628C162.703 50.1678 163.598 50.5711 164.938 50.5711C165.587 50.5711 166.254 50.5134 166.934 50.3804C167.622 50.2494 168.245 50.0638 168.812 49.839L169.654 54.8427C168.928 55.1616 168.119 55.4327 167.239 55.6646C166.347 55.8917 165.269 56.0078 163.975 56.0078C162.334 56.0078 160.979 55.7713 159.905 55.2923C158.829 54.8254 157.97 54.166 157.328 53.3104C156.686 52.469 156.237 51.4322 155.978 50.2306C155.718 49.0196 155.597 47.6799 155.597 46.2178V27.1399Z" fill="white"/>
</mask>
<g mask="url(#mask6)">
<path fill-rule="evenodd" clip-rule="evenodd" d="M-289.622 119.205L556.45 119.205L556.45 -1079.4H-289.622L-289.622 119.205Z" fill="#C4C4C4"/>
<path fill-rule="evenodd" clip-rule="evenodd" d="M145.524 66.0803H179.727V15.9289H145.524V66.0803Z" fill="#C4C4C4"/>
</g>
<path fill-rule="evenodd" clip-rule="evenodd" d="M171.775 44.1509C171.775 42.5092 172.024 40.9623 172.521 39.512C173.018 38.0567 173.735 36.7951 174.674 35.7143C175.616 34.6339 176.755 33.7826 178.101 33.1471C179.441 32.521 180.971 32.197 182.69 32.197C183.817 32.197 184.853 32.3108 185.794 32.5234C186.736 32.7434 187.653 33.0506 188.534 33.4492L187.289 38.5815C186.721 38.354 186.105 38.1559 185.43 37.977C184.759 37.8076 184.003 37.7185 183.173 37.7185C181.401 37.7185 180.076 38.3105 179.209 39.4901C178.328 40.6725 177.899 42.222 177.899 44.1509C177.899 46.1884 178.307 47.7718 179.132 48.8937C179.943 50.0129 181.377 50.5763 183.417 50.5763C184.143 50.5763 184.918 50.5009 185.755 50.3585C186.586 50.2134 187.351 49.9862 188.056 49.6673L188.896 54.9322C188.196 55.2488 187.327 55.5148 186.28 55.749C185.227 55.9769 184.075 56.095 182.816 56.095C180.882 56.095 179.212 55.7808 177.819 55.1641C176.424 54.5478 175.273 53.7063 174.375 52.6428C173.47 51.577 172.818 50.3201 172.401 48.8694C171.983 47.4167 171.775 45.8409 171.775 44.1509Z" fill="#C4C4C4"/>
<mask id="mask7" mask-type="alpha" maskUnits="userSpaceOnUse" x="171" y="32" width="18" height="25">
<path d="M178.101 33.1474C179.441 32.5213 180.971 32.1973 182.69 32.1973C183.817 32.1973 184.853 32.3106 185.794 32.5232C186.735 32.7437 187.653 33.0505 188.534 33.4494L187.289 38.5814C186.721 38.3543 186.105 38.1561 185.43 37.9773C184.758 37.8074 184.003 37.7184 183.173 37.7184C181.401 37.7184 180.076 38.3107 179.209 39.4903C178.328 40.6723 177.899 42.2218 177.899 44.1512C177.899 46.1887 178.307 47.772 179.132 48.894C179.943 50.0131 181.377 50.5765 183.416 50.5765C184.143 50.5765 184.918 50.5012 185.756 50.3587C186.586 50.2136 187.351 49.9865 188.056 49.6671L188.896 54.9325C188.196 55.249 187.327 55.5146 186.279 55.7492C185.227 55.9768 184.076 56.0952 182.816 56.0952C180.882 56.0952 179.212 55.7806 177.819 55.1639C176.424 54.5477 175.273 53.7066 174.374 52.6435C173.47 51.5772 172.818 50.3203 172.401 48.8696C171.983 47.417 171.775 45.8408 171.775 44.1512C171.775 42.5094 172.024 40.9626 172.521 39.5123C173.018 38.0569 173.735 36.7949 174.674 35.7141C175.616 34.6338 176.755 33.7829 178.101 33.1474Z" fill="white"/>
</mask>
<g mask="url(#mask7)">
<path fill-rule="evenodd" clip-rule="evenodd" d="M-289.622 119.204L556.451 119.204L556.451 -1079.4H-289.622L-289.622 119.204Z" fill="#C4C4C4"/>
<path fill-rule="evenodd" clip-rule="evenodd" d="M161.703 66.1677H198.968V22.1248H161.703V66.1677Z" fill="#C4C4C4"/>
</g>
<path fill-rule="evenodd" clip-rule="evenodd" d="M192.775 55.4824V27.1315L198.778 26.0029V32.8923C199.179 32.7495 199.693 32.6118 200.33 32.4816C200.958 32.3533 201.573 32.2855 202.162 32.2855C203.878 32.2855 205.305 32.5393 206.449 33.0398C207.588 33.5427 208.508 34.2559 209.188 35.1766C209.879 36.093 210.357 37.1903 210.644 38.4499C210.921 39.7186 211.061 41.1308 211.061 42.6827V55.4824H205.061V43.4536C205.061 41.3842 204.812 39.9194 204.318 39.0517C203.82 38.1981 202.898 37.7658 201.559 37.7658C201.013 37.7658 200.516 37.8167 200.043 37.9132C199.574 38.0149 199.152 38.1259 198.778 38.2396V55.4824H192.775Z" fill="#C4C4C4"/>
<mask id="mask8" mask-type="alpha" maskUnits="userSpaceOnUse" x="192" y="26" width="20" height="30">
<path d="M192.775 27.1313L198.778 26.0027V32.8925C199.179 32.7493 199.693 32.6116 200.33 32.4813C200.958 32.3531 201.573 32.2856 202.162 32.2856C203.878 32.2856 205.305 32.5394 206.449 33.0396C207.588 33.5429 208.508 34.2557 209.188 35.1768C209.878 36.0928 210.357 37.19 210.644 38.4501C210.921 39.7187 211.061 41.1306 211.061 42.6829V55.4822H205.061V43.4534C205.061 41.3844 204.812 39.9192 204.318 39.0515C203.82 38.1982 202.898 37.7655 201.559 37.7655C201.013 37.7655 200.515 37.8165 200.043 37.9134C199.574 38.0146 199.152 38.1256 198.778 38.2394V55.4822H192.775V27.1313Z" fill="white"/>
</mask>
<g mask="url(#mask8)">
<path fill-rule="evenodd" clip-rule="evenodd" d="M-289.622 119.205L556.451 119.205L556.451 -1079.4H-289.622L-289.622 119.205Z" fill="#C4C4C4"/>
<path fill-rule="evenodd" clip-rule="evenodd" d="M182.703 65.5549H221.133V15.9302H182.703V65.5549Z" fill="#C4C4C4"/>
</g>
<path fill-rule="evenodd" clip-rule="evenodd" d="M11.7955 55.4895L11.7955 34.9323C11.7955 34.9323 14.8126 32.3529 21.4118 32.3529C27.4169 32.3529 30.7145 35.5658 30.7145 42.6364V55.4895H24.7164V42.6364C24.7164 38.133 22.6114 37.8211 20.8131 37.8211C19.0149 37.8211 17.8105 38.7783 17.8105 38.7783V55.4895H11.7955Z" fill="#C4C4C4"/>
<mask id="mask9" mask-type="alpha" maskUnits="userSpaceOnUse" x="11" y="32" width="20" height="24">
<path d="M11.7957 34.9325C11.7957 34.9325 14.8128 32.3532 21.4119 32.3532C27.4171 32.3532 30.7143 35.5657 30.7143 42.6371V55.4897H24.7165V42.6371C24.7165 38.1328 22.6115 37.8213 20.8132 37.8213C19.015 37.8213 17.8107 38.7789 17.8107 38.7789V55.4897H11.7957L11.7957 34.9325Z" fill="white"/>
</mask>
<g mask="url(#mask9)">
<path fill-rule="evenodd" clip-rule="evenodd" d="M-289.622 119.205L556.451 119.205L556.451 -1079.4H-289.622L-289.622 119.205Z" fill="#C4C4C4"/>
<path fill-rule="evenodd" clip-rule="evenodd" d="M1.72375 65.5625H40.7866V22.2813H1.72375L1.72375 65.5625Z" fill="#C4C4C4"/>
</g>
<path fill-rule="evenodd" clip-rule="evenodd" d="M0.494507 55.4897L0.494507 27.134L6.49974 26.0025L6.49974 55.4897H0.494507Z" fill="#C4C4C4"/>
<mask id="mask10" mask-type="alpha" maskUnits="userSpaceOnUse" x="0" y="26" width="7" height="30">
<path d="M0.494507 27.1344L6.49974 26.0025L6.49974 55.4897H0.494507L0.494507 27.1344Z" fill="white"/>
</mask>
<g mask="url(#mask10)">
<path fill-rule="evenodd" clip-rule="evenodd" d="M-289.622 119.205L556.451 119.205L556.451 -1079.4H-289.622L-289.622 119.205Z" fill="#C4C4C4"/>
<path fill-rule="evenodd" clip-rule="evenodd" d="M-9.578 65.562H16.5721L16.5721 15.9303H-9.578L-9.578 65.562Z" fill="#C4C4C4"/>
</g>
<path fill-rule="evenodd" clip-rule="evenodd" d="M71.4055 45.7755H57.8981C57.8981 45.7755 58.1998 50.5932 64.1979 50.5932C67.2009 50.5932 70.2035 49.6333 70.2035 49.6333L70.8045 54.7798C70.8045 54.7798 67.8043 56.054 63.6044 56.054C57.5965 56.054 52.1946 52.8458 52.1946 43.8513C52.1946 36.778 56.3945 32.2866 62.3977 32.2866C71.4055 32.2866 72.0088 41.9122 71.4055 45.7755ZM62.1031 36.778C58.1998 36.778 57.8981 41.274 57.8981 41.274H66.2979C66.2979 41.274 66.0036 36.778 62.1031 36.778Z" fill="#C4C4C4"/>
<mask id="mask11" mask-type="alpha" maskUnits="userSpaceOnUse" x="52" y="32" width="20" height="25">
<path d="M52.1949 43.8509C52.1949 36.7776 56.3948 32.2862 62.3977 32.2862C71.4054 32.2862 72.0088 41.9122 71.4054 45.7751H57.8985C57.8985 45.7751 58.2001 50.5928 64.1979 50.5928C67.2009 50.5928 70.2035 49.6329 70.2035 49.6329L70.8044 54.7794C70.8044 54.7794 67.8042 56.054 63.6044 56.054C57.5968 56.054 52.1949 52.8458 52.1949 43.8509ZM62.103 36.7776C58.2001 36.7776 57.8985 41.274 57.8985 41.274H66.2982C66.2982 41.274 66.0036 36.7776 62.103 36.7776Z" fill="white"/>
</mask>
<g mask="url(#mask11)">
<path fill-rule="evenodd" clip-rule="evenodd" d="M-289.622 119.204L556.451 119.204L556.451 -1079.4H-289.622L-289.622 119.204Z" fill="#C4C4C4"/>
<path fill-rule="evenodd" clip-rule="evenodd" d="M42.1226 66.126H81.6458V22.2137H42.1226V66.126Z" fill="#C4C4C4"/>
</g>
<mask id="mask12" mask-type="alpha" maskUnits="userSpaceOnUse" x="219" y="21" width="40" height="52">
<path d="M219.016 26.0082C219.016 24.6375 236.28 21.6796 247.859 21.6796C252.881 21.6796 256.832 22.2359 257.843 23.7187C263.057 30.6035 226.354 73.7967 223.296 72.4864C220.843 71.8313 242.863 44.3387 239.193 33.2071C237.36 27.3207 219.016 27.9755 219.016 26.0082Z" fill="white"/>
</mask>
<g mask="url(#mask12)">
<path fill-rule="evenodd" clip-rule="evenodd" d="M208.944 82.5881H268.421V11.6074H208.944V82.5881Z" fill="#C4C4C4"/>
</g>
<mask id="mask13" mask-type="alpha" maskUnits="userSpaceOnUse" x="250" y="0" width="17" height="18">
<path d="M250.199 8.99094C250.199 4.28935 253.76 0.484514 258.148 0.484514C262.541 0.484514 266.096 4.28935 266.096 8.99094C266.096 13.6949 262.541 17.4998 258.148 17.4998C253.76 17.4998 250.199 13.6949 250.199 8.99094Z" fill="white"/>
</mask>
<g mask="url(#mask13)">
<path fill-rule="evenodd" clip-rule="evenodd" d="M240.128 27.5723L276.169 27.5723V-9.58827H240.128V27.5723Z" fill="#C4C4C4"/>
</g>
</g>
<defs>
<clipPath id="clip0">
<rect width="266.489" height="73" fill="white"/>
</clipPath>
</defs>
</svg>
