<svg width="147" height="143" viewBox="0 0 147 143" fill="none" xmlns="http://www.w3.org/2000/svg">
<path fill-rule="evenodd" clip-rule="evenodd" d="M21.144 90.4478L19.3573 86.0954L17.9978 90.4478H21.144ZM76.1151 90.4478L75.5813 81.6224L72.9689 90.4478H76.1151ZM44.3846 74.1254V48.3379H14.5847V74.4172L15.5824 71.0928L15.8111 70.3302H24.435L24.0187 71.7114C23.3619 73.8841 22.4039 77.0576 21.365 80.5033L31.1398 70.6477L31.4535 70.3302H42.4578L40.4734 72.1838L26.9384 84.8285L29.571 90.4478H39.4602L44.3846 74.1254ZM47.5829 48.3379V70.3278H53.5998C58.223 70.2718 63.0034 70.2142 65.4446 73.1106C66.8344 74.7604 67.2298 77.0762 66.6547 80.1905C66.1255 83.055 63.6034 89.7132 51.6427 89.7007L47.7533 89.7015L47.5821 90.2742V90.4485H65.4765L71.4086 71.0842L71.6405 70.327H77.3828V48.3379H47.5829ZM93.4904 90.4478L95.9005 82.3406L90.6602 90.4478H93.4904Z" fill="#C4C4C4"/>
<path fill-rule="evenodd" clip-rule="evenodd" d="M101.861 90.4478H105.27C105.262 88.9381 105.496 87.2051 106.101 85.2145C107.299 81.2722 108.759 78.3198 110.383 76.1066V48.3379H80.5819V70.3263H82.6659L82.7585 71.2935C82.806 71.7776 83.69 81.0893 83.4698 89.9248C85.5444 85.6993 89.1785 79.2372 95.2779 70.7706L95.5986 70.3255H106.874L106.543 71.6554L101.861 90.4478ZM113.582 48.3379V72.7853C116.889 70.2469 120.567 69.7263 124.047 69.7263C128.495 69.7263 131.998 71.2017 133.909 73.8802C135.377 75.9393 135.744 78.5011 134.916 80.908L134.667 81.6317L133.903 81.6309L128.05 81.6239L126.338 81.6216L127.084 80.094C127.098 80.0559 127.121 79.9508 127.137 79.8816C127.158 79.7781 127.184 79.6621 127.22 79.5407C127.526 78.5135 127.496 77.7299 127.131 77.214C126.62 76.4949 125.345 76.0661 123.442 75.9767C119.111 75.772 116.292 78.7571 114.306 85.6557C113.905 87.0518 113.663 88.3171 113.582 89.4353V90.4478H124.009L124.048 90.3194H117.697L118.13 88.9303L119.474 84.6223L119.708 83.8698H133.977L133.596 85.23L132.132 90.4478H143.384V48.3379H113.582Z" fill="#C4C4C4"/>
<path fill-rule="evenodd" clip-rule="evenodd" d="M93.4904 90.4477L95.9005 82.3406L90.6602 90.4477H93.4904Z" fill="#C4C4C4"/>
<path fill-rule="evenodd" clip-rule="evenodd" d="M105.503 70.3262H95.5986L95.278 70.7713C89.1786 79.2372 85.5444 85.7 83.4698 89.9255C83.69 81.09 82.8052 71.7783 82.7585 71.2942L82.6659 70.3269H71.6414L71.4095 71.0841L62.6883 99.5525L62.265 100.937H69.8624L70.0889 100.17L75.5806 81.6223L76.6871 99.9299L76.7478 100.937H83.8822L84.1997 100.447L95.8998 82.3398L90.7793 99.5602L90.3708 100.937H99.2467L99.4491 100.124L106.542 71.6561L106.874 70.3262H105.503Z" fill="#C4C4C4"/>
<path fill-rule="evenodd" clip-rule="evenodd" d="M98.4101 99.8656H91.808L99.056 75.4842L83.3009 99.8656H77.7563L76.2832 75.4803L69.0632 99.8656H63.7131L72.4335 71.3979H81.6923C81.6923 71.3979 83.1055 86.01 82.0207 96.026C82.0207 96.026 84.7747 87.178 96.1464 71.3979H105.502L98.4101 99.8656Z" fill="white"/>
<path fill-rule="evenodd" clip-rule="evenodd" d="M133.909 73.8803C131.998 71.2018 128.495 69.7263 124.047 69.7263C117.501 69.7263 110.25 71.5659 106.101 85.2153C104.3 91.138 105.741 94.836 107.268 96.8958C109.872 100.411 114.393 101.662 117.756 101.662C121.35 101.662 127.012 101.075 128.926 100.317L129.418 100.121L129.562 99.6109L133.596 85.2308L133.977 83.8706H119.708L119.474 84.6231L118.13 88.9311L117.697 90.3202H124.048L122.556 95.0282C122.261 95.1496 121.363 95.4033 118.992 95.411C116.861 95.418 115.345 94.8469 114.49 93.7138C113.303 92.1442 113.241 89.3575 114.306 85.6565C116.293 78.7587 119.111 75.7736 123.442 75.9775C125.345 76.067 126.62 76.4957 127.131 77.2148C127.496 77.7307 127.526 78.5143 127.22 79.5415C127.183 79.6622 127.158 79.7789 127.137 79.8824C127.12 79.9524 127.097 80.0575 127.084 80.0948L126.338 81.6224L128.05 81.6247L133.903 81.6317L134.667 81.6325L134.916 80.9088C135.745 78.5011 135.377 75.9393 133.909 73.8803Z" fill="#C4C4C4"/>
<path fill-rule="evenodd" clip-rule="evenodd" d="M133.904 80.5603L128.051 80.5525C128.147 80.3572 128.179 80.0739 128.246 79.8467C129.258 76.4522 127.17 75.0811 123.492 74.9067C118.062 74.6507 115.125 78.944 113.276 85.3601C111.285 92.2782 112.961 96.5015 118.996 96.4812C123.791 96.4649 123.536 95.4774 123.536 95.4774L125.512 89.2495H119.153L120.495 84.9415H132.565L128.531 99.3216C126.918 99.9613 121.564 100.592 117.756 100.592C112.027 100.592 103.704 96.7746 107.126 85.5275C111.217 72.071 118.318 70.7971 124.048 70.7971C132.422 70.7971 135.405 76.1985 133.904 80.5603Z" fill="white"/>
<path fill-rule="evenodd" clip-rule="evenodd" d="M42.4585 70.3293H31.4543L31.1406 70.6468L21.3659 80.5026C22.404 77.0568 23.3627 73.8833 24.0195 71.7106L24.4358 70.3293H15.812L15.5832 71.092L7.0333 99.5736L6.61853 100.952H15.3116L15.4914 100.103C15.5941 99.6903 17.4267 93.5831 19.4469 86.8689L24.8623 100.282L25.1323 100.951H34.4923L33.7779 99.4265L26.9385 84.8269L40.4734 72.1822L42.4585 70.3293Z" fill="#C4C4C4"/>
<path fill-rule="evenodd" clip-rule="evenodd" d="M14.4432 99.8827H8.05737L16.6073 71.4011H22.9923C22.9923 71.4011 14.5669 99.2983 14.4432 99.8827ZM19.4282 83.9821H19.4236L31.901 71.4011H39.7435L25.6389 84.5781L32.8091 99.8827H25.8553L19.4243 83.954L19.4282 83.9821Z" fill="white"/>
<path fill-rule="evenodd" clip-rule="evenodd" d="M65.4455 73.1106C63.0043 70.2134 58.2239 70.2718 53.6007 70.3278H45.5301L45.3013 71.0897L36.7102 99.572L36.2938 100.952H44.3901L44.6181 100.188L47.7542 89.7008L51.6436 89.7C63.6043 89.7132 66.1264 83.0543 66.6556 80.1898C67.2306 77.0762 66.8353 74.7604 65.4455 73.1106Z" fill="#C4C4C4"/>
<path fill-rule="evenodd" clip-rule="evenodd" d="M65.6019 79.996C64.7529 84.5904 60.7382 88.6393 51.6435 88.6292L46.9573 88.6316L43.5932 99.881H37.7343L46.3254 71.3986H53.5836C60.1499 71.3193 67.2236 71.2189 65.6019 79.996Z" fill="white"/>
<path fill-rule="evenodd" clip-rule="evenodd" d="M48.064 84.449C50.1799 84.449 51.7261 84.4824 53.1502 84.456C57.4302 84.3782 58.7423 82.8988 59.7072 79.997C61.3811 74.9614 57.0964 75.4914 50.674 75.4984L48.064 84.449Z" fill="#C4C4C4"/>
</svg>
