<svg width="99" height="75" viewBox="0 0 99 75" fill="none" xmlns="http://www.w3.org/2000/svg">
<g clip-path="url(#clip0)">
<path d="M98.8277 32.204H62.8851V23.0044H98.8277V32.204Z" fill="#C4C4C4"/>
<path d="M94.1592 32.2041H62.8851V9.19482H94.1592V32.2041Z" fill="#C4C4C4"/>
<path d="M81.2383 32.2041H62.8851V0H81.2383V32.2041Z" fill="#C4C4C4"/>
<path d="M84.8491 32.2042H62.8851V3.59351H84.8491V32.2042Z" fill="#C4C4C4"/>
<path d="M62.8801 3.59888V32.2012H81.2363V3.59888H62.8801Z" fill="#C4C4C4"/>
<path d="M44.481 32.2041H62.885V36.8044H44.481V32.2041Z" fill="#C4C4C4"/>
<path d="M62.8801 9.1897V32.201H84.8598V9.1897H62.8801Z" fill="#C4C4C4"/>
<path d="M62.8801 9.1897V32.201H81.2363V9.1897H62.8801Z" fill="#C4C4C4"/>
<path d="M74.3624 32.204H62.8851V18.3936H74.3624V32.204Z" fill="#C4C4C4"/>
<path d="M62.8801 23.011V32.2011H94.1697V23.011H62.8801Z" fill="#C4C4C4"/>
<path d="M62.8801 23.011V32.2011H84.8598V23.011H62.8801Z" fill="#C4C4C4"/>
<path d="M62.8801 23.011V32.2011H81.2363V23.011H62.8801Z" fill="#C4C4C4"/>
<path d="M62.8801 23.011V32.2011H74.3737V23.011H62.8801Z" fill="#C4C4C4"/>
<path d="M66.8866 49.531C63.7553 50.0877 62.0852 52.4536 62.0852 56.5593C62.0852 60.7347 64.3119 63.5182 67.5826 63.5182C69.1831 63.5182 70.5748 62.9615 73.4974 61.5001V64.91C69.9485 66.58 67.8608 66.9976 65.0774 66.9976C61.946 66.9976 59.719 66.2321 57.9793 64.3533C56.17 62.5439 55.1958 60.1779 55.1958 57.4639C55.1958 51.549 59.6494 47.4433 66.1211 47.4433C70.366 47.4433 73.3583 49.4614 73.3583 52.3145C73.3583 54.1934 71.9664 55.5156 69.9484 55.5156C68.9046 55.5156 68.0694 55.1677 66.8865 54.5413L66.8866 49.531ZM51.2294 57.464C54.0825 53.915 55.1263 52.4536 55.1263 50.7139C55.1263 48.9742 53.7345 47.4431 51.7861 47.4431C50.6727 47.4431 49.629 48.0695 49.1418 48.6262V55.9329L44.4793 62.1958V48H40.0257L32.6493 60.178V48H30.1441L23.394 49.5311V51.2707L27.0822 51.6186V66.7193H31.7446L38.8425 55.0285V66.7193H44.0616L51.2294 57.464ZM9.26783 64.3533H10.3116C14.0693 64.3533 16.1569 62.0568 16.1569 57.4639C16.1569 53.6367 14.4869 51.549 11.3553 51.549C10.9378 51.549 10.3115 51.6186 9.26774 51.8273V64.3532H9.26783V64.3533ZM9.26783 72.5646L12.3296 73.2605V75.0001H0.290996V73.2605L3.07441 72.5646V51.5489H0.0126343V49.8092L7.3193 47.5824H9.26793V50.0877C12.6776 48 13.8607 47.6521 15.6699 47.6521C19.706 47.6521 22.7678 51.4099 22.7678 56.6291C22.7678 62.6136 18.6622 66.7193 12.3992 66.7193C11.7033 66.7193 10.5203 66.6497 9.26783 66.5802" fill="#C4C4C4"/>
</g>
<defs>
<clipPath id="clip0">
<rect width="98.8403" height="75" fill="white"/>
</clipPath>
</defs>
</svg>
