<svg width="85" height="90" viewBox="0 0 85 90" fill="none" xmlns="http://www.w3.org/2000/svg">
<g clip-path="url(#clip0)">
<path fill-rule="evenodd" clip-rule="evenodd" d="M8.61376 24.802L8.76227 24.2079L8.91079 23.4653L15.4454 0L84.9504 0.148515L8.16821 62.6733L43.2177 20.3465H16.9306L15.4454 20.4951C12.3266 20.6436 9.50485 22.5743 8.61376 24.802Z" fill="#C4C4C4"/>
<path fill-rule="evenodd" clip-rule="evenodd" d="M81.2377 42.9207C81.2377 42.6237 79.01 56.1386 75.2971 70.099L2.67334 70.5445L81.0892 7.12866L45.8912 49.7524H72.3268L73.812 49.6039C76.9308 49.4554 80.1981 45.1485 81.2377 42.9207Z" fill="#C4C4C4"/>
<path fill-rule="evenodd" clip-rule="evenodd" d="M12.3267 90H0L8.46535 78.4158H2.82178L3.26733 75.1484H15L6.53465 86.7326H12.7723L12.3267 90ZM14.703 90L16.6337 75.1484H25.099L24.6535 78.4158H19.901L19.604 80.9405H24.0594L23.7624 84.2079H19.1584L18.8614 86.7326H23.6139L23.1683 90H14.703ZM25.6931 90L27.6238 75.1484H31.3366L35.6436 82.8712L35.9406 83.7623L36.5347 85.396C36.5434 84.4537 36.593 83.5122 36.6832 82.5742L37.5743 75.1484H41.2871L39.3564 90H35.7921L31.4851 82.4257L31.0396 81.3861L30.4455 79.7524C30.4379 80.7442 30.3884 81.7351 30.297 82.7227L29.4059 90H25.6931ZM42.4752 90L44.4059 75.1484H48.2673L46.3366 90H42.4752ZM51.3861 90L52.8713 78.7128H49.7525L50.198 75.1484H60.297L59.8515 78.7128H56.7327L55.2475 90H51.3861ZM60.1485 90L62.0792 75.1484H65.9406L65.198 80.9405H70.2475L70.9901 75.1484H74.8515L72.9208 90H69.0594L69.802 83.9108H64.7525L64.0099 90H60.1485Z" fill="#C4C4C4"/>
</g>
<defs>
<clipPath id="clip0">
<rect width="84.9505" height="90" fill="white"/>
</clipPath>
</defs>
</svg>
